<mxfile host="app.diagrams.net" modified="2020-10-08T08:52:50.184Z" agent="5.0 (Windows NT 10.0; Win64; x64) AppleWebKit/537.36 (KHTML, like Gecko) Chrome/85.0.4183.121 Safari/537.36" etag="DeALFt4Wrf6MaGHQlNOE" version="13.7.8" type="github">
  <diagram id="UX8iulwuuRvUwiNS4Kw_" name="Page-1">
    <mxGraphModel dx="1038" dy="531" grid="1" gridSize="10" guides="1" tooltips="1" connect="1" arrows="1" fold="1" page="1" pageScale="1" pageWidth="827" pageHeight="1169" math="0" shadow="0">
      <root>
        <mxCell id="0" />
        <mxCell id="1" parent="0" />
        <mxCell id="Ig7n2nL-Q2KAE9FQXhW1-1" value="&lt;font style=&quot;font-size: 36px&quot;&gt;Gallery&lt;/font&gt;" style="rounded=0;whiteSpace=wrap;html=1;" vertex="1" parent="1">
          <mxGeometry x="290" y="80" width="230" height="80" as="geometry" />
        </mxCell>
        <mxCell id="Ig7n2nL-Q2KAE9FQXhW1-2" value="&lt;font style=&quot;font-size: 36px&quot;&gt;Picture&lt;/font&gt;&lt;span style=&quot;color: rgba(0 , 0 , 0 , 0) ; font-family: monospace ; font-size: 0px&quot;&gt;%3CmxGraphModel%3E%3Croot%3E%3CmxCell%20id%3D%220%22%2F%3E%3CmxCell%20id%3D%221%22%20parent%3D%220%22%2F%3E%3CmxCell%20id%3D%222%22%20value%3D%22%26lt%3Bfont%20style%3D%26quot%3Bfont-size%3A%2036px%26quot%3B%26gt%3BGallery%26lt%3B%2Ffont%26gt%3B%22%20style%3D%22rounded%3D0%3BwhiteSpace%3Dwrap%3Bhtml%3D1%3B%22%20vertex%3D%221%22%20parent%3D%221%22%3E%3CmxGeometry%20x%3D%22290%22%20y%3D%2280%22%20width%3D%22230%22%20height%3D%2280%22%20as%3D%22geometry%22%2F%3E%3C%2FmxCell%3E%3C%2Froot%3E%3C%2FmxGraphModel%3E&lt;/span&gt;" style="rounded=0;whiteSpace=wrap;html=1;" vertex="1" parent="1">
          <mxGeometry x="290" y="210" width="230" height="80" as="geometry" />
        </mxCell>
        <mxCell id="Ig7n2nL-Q2KAE9FQXhW1-3" value="&lt;font style=&quot;font-size: 36px&quot;&gt;File&lt;/font&gt;" style="rounded=0;whiteSpace=wrap;html=1;" vertex="1" parent="1">
          <mxGeometry x="290" y="350" width="230" height="80" as="geometry" />
        </mxCell>
        <mxCell id="Ig7n2nL-Q2KAE9FQXhW1-4" value="&lt;font style=&quot;font-size: 36px&quot;&gt;Date&lt;/font&gt;" style="rounded=0;whiteSpace=wrap;html=1;" vertex="1" parent="1">
          <mxGeometry x="550" y="350" width="230" height="80" as="geometry" />
        </mxCell>
        <mxCell id="Ig7n2nL-Q2KAE9FQXhW1-5" value="&lt;font style=&quot;font-size: 36px&quot;&gt;Author&lt;/font&gt;" style="rounded=0;whiteSpace=wrap;html=1;" vertex="1" parent="1">
          <mxGeometry x="30" y="350" width="230" height="80" as="geometry" />
        </mxCell>
        <mxCell id="Ig7n2nL-Q2KAE9FQXhW1-6" value="" style="endArrow=none;html=1;entryX=0.5;entryY=1;entryDx=0;entryDy=0;exitX=0.5;exitY=0;exitDx=0;exitDy=0;" edge="1" parent="1" source="Ig7n2nL-Q2KAE9FQXhW1-2" target="Ig7n2nL-Q2KAE9FQXhW1-1">
          <mxGeometry width="50" height="50" relative="1" as="geometry">
            <mxPoint x="370" y="200" as="sourcePoint" />
            <mxPoint x="420" y="150" as="targetPoint" />
          </mxGeometry>
        </mxCell>
        <mxCell id="Ig7n2nL-Q2KAE9FQXhW1-7" value="" style="endArrow=none;html=1;entryX=0.5;entryY=1;entryDx=0;entryDy=0;exitX=0.5;exitY=0;exitDx=0;exitDy=0;" edge="1" parent="1" source="Ig7n2nL-Q2KAE9FQXhW1-3" target="Ig7n2nL-Q2KAE9FQXhW1-2">
          <mxGeometry width="50" height="50" relative="1" as="geometry">
            <mxPoint x="400" y="340" as="sourcePoint" />
            <mxPoint x="450" y="290" as="targetPoint" />
          </mxGeometry>
        </mxCell>
        <mxCell id="Ig7n2nL-Q2KAE9FQXhW1-8" value="" style="endArrow=none;html=1;entryX=0;entryY=0.5;entryDx=0;entryDy=0;exitX=0.5;exitY=0;exitDx=0;exitDy=0;" edge="1" parent="1" source="Ig7n2nL-Q2KAE9FQXhW1-5" target="Ig7n2nL-Q2KAE9FQXhW1-2">
          <mxGeometry width="50" height="50" relative="1" as="geometry">
            <mxPoint x="260" y="290" as="sourcePoint" />
            <mxPoint x="310" y="240" as="targetPoint" />
          </mxGeometry>
        </mxCell>
        <mxCell id="Ig7n2nL-Q2KAE9FQXhW1-9" value="" style="endArrow=none;html=1;entryX=1;entryY=0.5;entryDx=0;entryDy=0;exitX=0.5;exitY=0;exitDx=0;exitDy=0;" edge="1" parent="1" source="Ig7n2nL-Q2KAE9FQXhW1-4" target="Ig7n2nL-Q2KAE9FQXhW1-2">
          <mxGeometry width="50" height="50" relative="1" as="geometry">
            <mxPoint x="620" y="310" as="sourcePoint" />
            <mxPoint x="670" y="260" as="targetPoint" />
          </mxGeometry>
        </mxCell>
      </root>
    </mxGraphModel>
  </diagram>
</mxfile>
